<svg width="70" height="85" viewBox="0 0 70 85" fill="none" xmlns="http://www.w3.org/2000/svg">
<path d="M0 7C0 3.13401 3.13401 0 7 0H70V85H7C3.13401 85 0 81.866 0 78V7Z" fill="#E2D900"/>
<path d="M20 17.5C18.6739 17.5 17.4021 18.0268 16.4645 18.9645C15.5268 19.9021 15 21.1739 15 22.5V62.5C15 63.8261 15.5268 65.0979 16.4645 66.0355C17.4021 66.9732 18.6739 67.5 20 67.5H50C51.3261 67.5 52.5979 66.9732 53.5355 66.0355C54.4732 65.0979 55 63.8261 55 62.5V32.5L40 17.5H20ZM20 22.5H37.5V35H50V62.5H20V22.5ZM25 42.5V47.5H45V42.5H25ZM25 52.5V57.5H37.5V52.5H25Z" fill="#161616"/>
</svg>
