<svg width="70" height="85" viewBox="0 0 70 85" fill="none" xmlns="http://www.w3.org/2000/svg">
<path d="M0 7C0 3.13401 3.13401 0 7 0H70V85H7C3.13401 85 0 81.866 0 78V7Z" fill="#00E2D5"/>
<path d="M29.5 33.375C30.9 33.375 32.025 32.25 32.025 30.85C32.025 29.45 30.9 28.325 29.5 28.325C28.1 28.325 26.975 29.45 26.975 30.85C26.975 32.25 28.1 33.375 29.5 33.375Z" fill="#161616"/>
<path fill-rule="evenodd" clip-rule="evenodd" d="M34.575 38.875C34.575 36.175 32.3 34.225 29.5 34.225C26.7 34.225 24.425 36.175 24.425 38.875V40.15C24.425 40.375 24.525 40.6 24.675 40.75C24.825 40.9 25.05 41 25.275 41H33.725C33.95 41 34.175 40.9 34.325 40.75C34.475 40.6 34.575 40.375 34.575 40.15V38.875ZM24.375 46.25C24.375 45.7527 24.5725 45.2758 24.9242 44.9242C25.2758 44.5725 25.7527 44.375 26.25 44.375H43.75C44.2473 44.375 44.7242 44.5725 45.0758 44.9242C45.4275 45.2758 45.625 45.7527 45.625 46.25C45.625 46.7473 45.4275 47.2242 45.0758 47.5758C44.7242 47.9274 44.2473 48.125 43.75 48.125H26.25C25.7527 48.125 25.2758 47.9274 24.9242 47.5758C24.5725 47.2242 24.375 46.7473 24.375 46.25ZM24.375 53.75C24.375 53.2527 24.5725 52.7758 24.9242 52.4241C25.2758 52.0725 25.7527 51.875 26.25 51.875H43.75C44.2473 51.875 44.7242 52.0725 45.0758 52.4241C45.4275 52.7758 45.625 53.2527 45.625 53.75C45.625 54.2473 45.4275 54.7242 45.0758 55.0758C44.7242 55.4274 44.2473 55.625 43.75 55.625H26.25C25.7527 55.625 25.2758 55.4274 24.9242 55.0758C24.5725 54.7242 24.375 54.2473 24.375 53.75Z" fill="#161616"/>
<path fill-rule="evenodd" clip-rule="evenodd" d="M16.25 23.75C16.25 20.995 18.495 18.75 21.25 18.75H37.975C39.38 18.75 40.705 19.345 41.6375 20.3275L41.6525 20.345L52.4325 32.1C53.33 33.0575 53.75 34.31 53.75 35.5V61.25C53.75 64.005 51.505 66.25 48.75 66.25H21.25C18.495 66.25 16.25 64.005 16.25 61.25V23.75ZM37.9725 23.75H21.25V61.25H48.75V35.48L38.01 23.7675L38.0025 23.765C37.9934 23.7584 37.9833 23.7533 37.9725 23.75Z" fill="#161616"/>
<path fill-rule="evenodd" clip-rule="evenodd" d="M37.975 18.75C38.638 18.75 39.2739 19.0134 39.7427 19.4822C40.2116 19.9511 40.475 20.587 40.475 21.25V33H51.25C51.5783 33 51.9034 33.0647 52.2067 33.1903C52.51 33.3159 52.7856 33.5001 53.0178 33.7322C53.2499 33.9644 53.434 34.24 53.5597 34.5433C53.6853 34.8466 53.75 35.1717 53.75 35.5C53.75 35.8283 53.6853 36.1534 53.5597 36.4567C53.434 36.76 53.2499 37.0356 53.0178 37.2678C52.7856 37.4999 52.51 37.6841 52.2067 37.8097C51.9034 37.9353 51.5783 38 51.25 38H37.975C37.3119 38 36.6761 37.7366 36.2072 37.2678C35.7384 36.7989 35.475 36.163 35.475 35.5V21.25C35.475 20.587 35.7384 19.9511 36.2072 19.4822C36.6761 19.0134 37.3119 18.75 37.975 18.75Z" fill="#161616"/>
</svg>
