<svg width="70" height="85" viewBox="0 0 70 85" fill="none" xmlns="http://www.w3.org/2000/svg">
<path d="M0 7C0 3.13401 3.13401 0 7 0H70V85H7C3.13401 85 0 81.866 0 78V7Z" fill="#20E200"/>
<path d="M20.6453 21.2594L18.4453 23.4563L21.7188 26.7281L23.9156 24.5313L20.6437 21.2594H20.6453ZM49.3563 21.2594L46.0828 24.5313L48.2812 26.7281L51.5531 23.4578L49.3563 21.2594ZM35 22.2344C34.4844 22.2406 33.9625 22.2703 33.4375 22.3344C33.4219 22.3344 33.4062 22.3313 33.3906 22.3344C27.0531 23.061 22.0094 28.1813 21.1328 34.4906C20.4328 39.5688 22.5266 44.1735 26.0156 47.1391C27.4428 48.3571 28.4082 50.0286 28.75 51.8735V61.2485H32.3125C32.8562 62.1813 33.8484 62.811 35 62.811C36.1516 62.811 37.1437 62.1813 37.6875 61.2485H41.25V54.9985H41.3969V53.1422C41.3969 50.8516 42.5875 48.5422 44.5219 46.7469C47.1094 44.1563 49.0625 40.4766 49.0625 36.25C49.0625 28.5313 42.7094 22.1625 35 22.2344ZM35 25.3594C41.0391 25.275 45.9375 30.2188 45.9375 36.25C45.9375 39.5219 44.4219 42.4031 42.3234 44.5L42.3734 44.55C40.2881 46.473 38.9396 49.0638 38.5609 51.875H31.7266C31.3828 49.1969 30.2344 46.6047 28.0641 44.7453C25.3031 42.4016 23.6578 38.8703 24.2078 34.8828C24.8906 29.961 28.8844 26.0031 33.7781 25.461C34.1822 25.4046 34.5891 25.3712 34.9969 25.361L35 25.3594ZM13.125 36.25V39.375H17.8125V36.25H13.125ZM52.1875 36.25V39.375H56.875V36.25H52.1875ZM21.7188 48.8969L18.4469 52.1672L20.6453 54.3657L23.9141 51.0938L21.7188 48.8969ZM48.2812 48.8969L46.0844 51.0938L49.3547 54.3657L51.5531 52.1672L48.2812 48.8969ZM31.875 55H38.125V58.125H31.875V55Z" fill="#161616"/>
</svg>
