<svg width="70" height="85" viewBox="0 0 70 85" fill="none" xmlns="http://www.w3.org/2000/svg">
<path d="M0 7C0 3.13401 3.13401 0 7 0H70V85H7C3.13401 85 0 81.866 0 78V7Z" fill="#E28800"/>
<g clip-path="url(#clip0_58_441)">
<path d="M35 19.2858V33.5715M40.3571 56.7858H49.2857M11.7857 33.5715H58.2143V62.1429C58.2143 63.0901 57.838 63.9985 57.1682 64.6683C56.4985 65.3381 55.5901 65.7143 54.6429 65.7143H15.3571C14.4099 65.7143 13.5015 65.3381 12.8318 64.6683C12.162 63.9985 11.7857 63.0901 11.7857 62.1429V33.5715Z" stroke="#161616" stroke-width="5" stroke-linecap="round" stroke-linejoin="round"/>
<path d="M11.7857 33.5715L17.1428 23.2501C17.7204 22.0867 18.6042 21.1029 19.6991 20.4044C20.7941 19.7059 22.0588 19.3191 23.3571 19.2858H46.6429C47.9717 19.2865 49.2741 19.6579 50.4034 20.3582C51.5328 21.0585 52.4444 22.06 53.0357 23.2501L58.2143 33.5715" stroke="#161616" stroke-width="5" stroke-linecap="round" stroke-linejoin="round"/>
</g>
<defs>
<clipPath id="clip0_58_441">
<rect width="50" height="50" fill="white" transform="translate(10 17.5)"/>
</clipPath>
</defs>
</svg>
